<?xml version="1.0" encoding="UTF-8" standalone="no"?>
<svg xmlns:rdf="http://www.w3.org/1999/02/22-rdf-syntax-ns#" xmlns="http://www.w3.org/2000/svg" height="512" width="1024" version="1" xmlns:cc="http://creativecommons.org/ns#" xmlns:dc="http://purl.org/dc/elements/1.1/" viewBox="360 0 1024 512">
 <metadata>
  <rdf:RDF>
   <cc:Work rdf:about="">
    <dc:format>image/svg+xml</dc:format>
    <dc:type rdf:resource="http://purl.org/dc/dcmitype/StillImage"/>
    <dc:title/>
   </cc:Work>
  </rdf:RDF>
 </metadata>
 <defs>
  <style>.cls-1{fill:#c6202f;}.cls-2{fill:#fff;}</style>
  <style>.cls-1{fill:#c6202f;}.cls-2,.cls-4,.cls-5{fill:#fff;}.cls-3{fill:#d1d2d3;fill-rule:evenodd;}.cls-4{font-size:28.88px;font-family:Helvetica-8-Heavy;}.cls-5{font-size:16.84px;font-family:Helvetica-2-UltraLight;}</style>
 </defs>
 <g stroke-width="64">
  <path stroke="#338000" d="m656.61 271.56c-0.54266-26.916-16.398-60.963-42.125-68.914-58.373-18.041-167.17 75.156-167.17 75.156-122.73 97.621 19.934 239.65 103.71 183.25 58.997-39.715 107.04-117.21 105.59-189.5z" fill="#0a4"/>
  <path stroke="#a08" d="m576.33 271.76c0.54266-26.916 16.398-60.963 42.125-68.914 58.373-18.041 167.17 75.156 167.17 75.156 122.73 97.621-19.934 239.65-103.71 183.25-58.997-39.715-107.04-117.21-105.59-189.5z" fill="#d400aa"/>
  <path stroke="#217867" d="m572.8 241.97c0.54266 26.916 16.398 60.963 42.125 68.914 58.373 18.041 167.17-75.156 167.17-75.156 122.73-97.621-19.934-239.65-103.71-183.25-58.997 39.715-107.04 117.21-105.59 189.5z" fill="#2ca089"/>
  <path stroke="#d45500" d="m658.11 243.63c-0.54266 26.916-16.398 60.963-42.125 68.914-58.373 18.041-167.17-75.156-167.17-75.156-122.73-97.621 19.934-239.65 103.71-183.25 58.997 39.715 107.04 117.21 105.59 189.5z" fill="#f60"/>
 </g>
 <circle id="center" stroke="#214478" cy="256" cx="616" r="127.5" fill="#2c5aa0"/>
 <g stroke-width="3.681" font-size="147.24px" font-family="&apos;Agency FB&apos;" letter-spacing="0px" word-spacing="0px" font-stretch="condensed" font-weight="bold">
  <g aria-label="MULTI" style="font-variant-ligatures:normal;font-variant-numeric:normal;font-variant-caps:normal;font-feature-settings:normal" fill="#2c5aa0">
   <path style="font-variant-ligatures:normal;font-variant-numeric:normal;font-variant-caps:normal;font-feature-settings:normal" d="m937.88 176h-9.4182v-71.247q0-1.5098 1.0065-8.843l-18.405 69.522h-2.013l-18.405-69.522q1.0065 7.4051 1.0065 8.843v71.25h-9.4182v-112.52h9.2744l18.261 73.189q0.14379 0.57516 0.28757 3.2352 0-1.0784 0.28758-3.2352l18.261-73.189h9.2744z"/>
   <path style="font-variant-ligatures:normal;font-variant-numeric:normal;font-variant-caps:normal;font-feature-settings:normal" d="m1002.5 168.02q0 3.5228-2.3006 5.7516-2.22 2.23-5.74 2.23h-30.627q-3.5228 0-5.7516-2.2287-2.2287-2.2287-2.2287-5.7516v-104.54h9.9933v103.68h26.673v-103.68h9.9933z"/>
   <path style="font-variant-ligatures:normal;font-variant-numeric:normal;font-variant-caps:normal;font-feature-settings:normal" d="m1056.5 176h-35.947v-112.52h9.9934v103.68h25.954z"/>
   <path style="font-variant-ligatures:normal;font-variant-numeric:normal;font-variant-caps:normal;font-feature-settings:normal" d="m1109.1 72.328h-17.398v103.67h-9.9933v-103.67h-17.542v-8.843h44.934z"/>
   <path style="font-variant-ligatures:normal;font-variant-numeric:normal;font-variant-caps:normal;font-feature-settings:normal" d="m1131.5 176h-9.9933v-112.52h9.9933z"/>
  </g>
  <g aria-label="FUNC" style="font-variant-ligatures:normal;font-variant-numeric:normal;font-variant-caps:normal;font-feature-settings:normal" fill="#d45500">
   <path style="font-variant-ligatures:normal;font-variant-numeric:normal;font-variant-caps:normal;font-feature-settings:normal" d="m1003.5 208.33h-26.242v42.705h24.157v8.9868h-24.18v51.97h-9.9933v-112.51h36.235z"/>
   <path style="font-variant-ligatures:normal;font-variant-numeric:normal;font-variant-caps:normal;font-feature-settings:normal" d="m1063.9 304.02q0 3.5228-2.3006 5.7516-2.2 2.23-5.7 2.23h-30.627q-3.5229 0-5.7516-2.2287t-2.2287-5.7516v-104.53h9.9933v103.67h26.673v-103.67h9.9933z"/>
   <path style="font-variant-ligatures:normal;font-variant-numeric:normal;font-variant-caps:normal;font-feature-settings:normal" d="m1128.3 312h-6.9019l-30.052-82.751v82.75h-9.4182v-112.51h7.4771l29.477 81.313v-81.313h9.4182z"/>
   <path style="font-variant-ligatures:normal;font-variant-numeric:normal;font-variant-caps:normal;font-feature-settings:normal" d="m1191.5 304.02q0 3.5228-2.3006 5.7516-2.3 2.23-5.9 2.23h-28.974q-3.5228 0-5.7515-2.2287-2.2288-2.2287-2.2288-5.7516v-96.554q0-3.5228 2.2288-5.7516 2.2287-2.2287 5.7515-2.2287h28.974q3.5229 0 5.8235 2.2287t2.3006 5.7516v26.17h-10.065v-25.307h-25.019v94.829h25.019v-27.679h10.065z"/>
  </g>
  <g aria-label="TIONAL" style="font-variant-ligatures:normal;font-variant-numeric:normal;font-variant-caps:normal;font-feature-settings:normal" fill="#338000">
   <path style="font-variant-ligatures:normal;font-variant-numeric:normal;font-variant-caps:normal;font-feature-settings:normal" d="m1065.9 344.33h-17.398v103.67h-9.9934v-103.67h-17.542v-8.843h44.934z"/>
   <path style="font-variant-ligatures:normal;font-variant-numeric:normal;font-variant-caps:normal;font-feature-settings:normal" d="m1088.4 448h-9.9933v-112.51h9.9933z"/>
   <path style="font-variant-ligatures:normal;font-variant-numeric:normal;font-variant-caps:normal;font-feature-settings:normal" d="m1154.7 440.02q0 3.5228-2.3006 5.7516-2.3 2.23-5.8 2.23h-31.49q-3.5228 0-5.7516-2.2287-2.2287-2.2287-2.2287-5.7516v-96.554q0-3.5228 2.2287-5.7516 2.2288-2.2287 5.7516-2.2287h31.49q3.5228 0 5.7516 2.2287 2.3006 2.2287 2.3006 5.7516zm-9.9933-0.86274v-94.829h-27.536v94.829z"/>
   <path style="font-variant-ligatures:normal;font-variant-numeric:normal;font-variant-caps:normal;font-feature-settings:normal" d="m1219.1 448h-6.9019l-30.052-82.751v82.75h-9.4182v-112.51h7.4771l29.477 81.313v-81.313h9.4182z"/>
   <path style="font-variant-ligatures:normal;font-variant-numeric:normal;font-variant-caps:normal;font-feature-settings:normal" d="m1282.5 448h-9.9215l-3.9542-25.019h-22.3l-4 25.02h-9.6338v-0.28758l20.058-112.51h9.8496zm-15.17-33.862-9.8495-60.967-9.9215 60.967z"/>
   <path style="font-variant-ligatures:normal;font-variant-numeric:normal;font-variant-caps:normal;font-feature-settings:normal" d="m1332 448h-35.9v-112.51h9.9933v103.67h25.954z"/>
  </g>
 </g>
</svg>
