<?xml version="1.0" encoding="UTF-8" standalone="no"?>
<svg
   xmlns:dc="http://purl.org/dc/elements/1.1/"
   xmlns:cc="http://creativecommons.org/ns#"
   xmlns:rdf="http://www.w3.org/1999/02/22-rdf-syntax-ns#"
   xmlns:svg="http://www.w3.org/2000/svg"
   xmlns="http://www.w3.org/2000/svg"
   height="512"
   width="1024"
   version="1"
   viewBox="360 0 1024 512"
   id="svg59">
  <metadata
     id="metadata2">
    <rdf:RDF>
      <cc:Work
         rdf:about="">
        <dc:format>image/svg+xml</dc:format>
        <dc:type
           rdf:resource="http://purl.org/dc/dcmitype/StillImage" />
        <dc:title></dc:title>
      </cc:Work>
    </rdf:RDF>
  </metadata>

  <g
     stroke-width="64"
     id="g18">
    <path
       stroke="#338000"
       d="m656.61 271.56c-0.54266-26.916-16.398-60.963-42.125-68.914-58.373-18.041-167.17 75.156-167.17 75.156-122.73 97.621 19.934 239.65 103.71 183.25 58.997-39.715 107.04-117.21 105.59-189.5z"
       fill="#0a4"
       id="path10" />
    <path
       stroke="#a08"
       d="m576.33 271.76c0.54266-26.916 16.398-60.963 42.125-68.914 58.373-18.041 167.17 75.156 167.17 75.156 122.73 97.621-19.934 239.65-103.71 183.25-58.997-39.715-107.04-117.21-105.59-189.5z"
       fill="#d400aa"
       id="path12" />
    <path
       stroke="#217867"
       d="m572.8 241.97c0.54266 26.916 16.398 60.963 42.125 68.914 58.373 18.041 167.17-75.156 167.17-75.156 122.73-97.621-19.934-239.65-103.71-183.25-58.997 39.715-107.04 117.21-105.59 189.5z"
       fill="#2ca089"
       id="path14" />
    <path
       stroke="#d45500"
       d="m658.11 243.63c-0.54266 26.916-16.398 60.963-42.125 68.914-58.373 18.041-167.17-75.156-167.17-75.156-122.73-97.621 19.934-239.65 103.71-183.25 58.997 39.715 107.04 117.21 105.59 189.5z"
       fill="#f60"
       id="path16" />
  </g>
  <circle
     id="center"
     stroke="#214478"
     cy="256"
     cx="616"
     r="127.5"
     fill="#2c5aa0" />
  <path
     id="path2825"
     fill="#2c5aa0"
     d="M 985.79724,293.27579 H 971.27597 V 113.89725 q 0,-3.80116 1.55189,-22.26394 L 944.4505,266.66768 h -3.10379 L 912.96926,91.63331 q 1.5519,18.64379 1.5519,22.26394 V 293.27579 H 899.99989 V 9.998874 h 14.29957 L 942.4552,194.26463 q 0.2217,1.44806 0.4434,8.14534 0,-2.71511 0.4434,-8.14534 L 971.49767,9.998874 h 14.29957 z" />
  <path
     id="path2827"
     fill="#2c5aa0"
     d="m 1073.7007,272.82194 q 0,20.45385 -12.526,20.45385 h -37.0236 q -12.4152,0 -12.4152,-20.45385 V 137.60925 q 0,-20.45387 12.4152,-20.45387 h 37.0236 q 12.526,0 12.526,20.45387 z m -14.743,-0.72404 V 138.33328 h -32.4788 V 272.0979 Z" />
  <path
     id="path2829"
     fill="#2c5aa0"
     d="m 1159.0546,293.27579 h -14.6321 v -4.8872 q -23.7218,5.97326 -26.2713,5.97326 -9.4222,0 -15.1863,-10.31744 -5.7642,-10.49844 -5.7642,-26.0651 V 154.98598 q 0,-16.29069 6.5401,-26.97014 6.5401,-10.86046 16.4057,-10.86046 h 24.276 V 9.998874 h 14.6321 z m -14.6321,-21.90192 V 138.33328 h -20.3963 q -12.1934,0 -12.1934,20.45386 v 94.12396 q 0,20.27285 12.1934,20.27285 2.8821,0 20.3963,-1.81008 z" />
  <path
     id="path2831"
     fill="#217867"
     d="m 1245.0736,293.27579 h -14.5213 v -4.8872 q -8.8679,1.99108 -17.625,3.80117 -10.6415,2.17209 -17.625,2.17209 -11.9718,0 -11.9718,-19.54883 V 117.15538 h 14.5213 v 154.58051 l 32.7005,-1.44806 V 117.15538 h 14.5213 z" />
  <path
     id="path2833"
     fill="#217867"
     d="m 1284.7576,293.27579 h -14.5212 V 9.998874 h 14.5212 z" />
  <path
     id="path2835"
     fill="#217867"
     d="m 1370.0006,272.82194 q 0,20.45385 -12.4151,20.45385 h -35.4717 q -12.4151,0 -12.4151,-20.45385 V 137.60925 q 0,-20.45387 12.4151,-20.45387 h 35.4717 q 12.4151,0 12.4151,20.45387 v 63.35266 l -4.9882,8.50736 h -41.0142 v 63.71468 h 31.7029 V 240.9646 h 14.2995 z m -14.2995,-82.53948 v -53.03523 h -31.7029 v 53.03523 z" />
  <path
     id="path2838"
     fill="#aa0088"
     d="m 961.61943,320.73733 v 17.9598 q -7.37381,-5.01416 -13.91409,-7.47564 -6.54027,-2.4615 -12.63162,-2.4615 -10.57988,0 -16.35061,5.83465 -5.70675,5.83466 -5.70675,16.5923 0,9.02548 3.78314,13.67497 3.84721,4.55833 14.49108,7.38448 l 7.82265,2.27916 q 14.49116,3.92016 21.35205,13.85731 6.92497,9.84597 6.92497,26.43827 0,19.78312 -9.36157,29.99376 -9.29742,10.21065 -27.31518,10.21065 -6.79673,0 -14.49107,-2.18799 -7.63035,-2.188 -15.83769,-6.47283 V 427.4021 q 7.88672,6.29049 15.45292,9.48131 7.56619,3.19083 14.87584,3.19083 11.0928,0 17.12007,-6.19932 6.02728,-6.19932 6.02728,-17.68629 0,-10.02832 -4.36013,-15.68063 -4.29606,-5.65233 -14.17054,-8.47848 l -7.88681,-2.188 q -14.49108,-4.10249 -20.9672,-12.85447 -6.47621,-8.75198 -6.47621,-24.34145 0,-18.05096 8.91273,-28.44394 8.9768,-10.39297 24.68626,-10.39297 6.73258,0 13.72171,1.73216 6.98903,1.73217 14.29877,5.19648 z" />
  <path
     id="path2840"
     fill="#aa0088"
     d="m 1016.9551,461.86303 q -5.0014,18.23328 -9.7463,23.79444 -4.7449,5.56115 -12.69577,5.56115 h -9.42564 V 477.179 h 6.92496 q 4.87313,0 7.5662,-3.282 2.69295,-3.282 5.96315,-15.4983 l 2.116,-7.65798 -29.04643,-100.46545 h 12.5034 l 22.44203,79.86182 22.4421,-79.86182 h 12.5033 z" />
  <path
     id="path2842"
     fill="#aa0088"
     d="m 1110.5704,353.28377 v 15.86297 q -5.0014,-3.64667 -10.3874,-5.47 -5.3862,-1.82333 -11.157,-1.82333 -8.7844,0 -13.2087,3.829 -4.3602,3.82898 -4.3602,11.48697 0,5.83465 3.1419,9.20781 3.1419,3.282 12.6317,6.29048 l 4.0395,1.27633 q 12.5676,3.829 17.8254,10.84881 5.322,6.92866 5.322,19.41847 0,14.22197 -7.9509,22.51811 -7.8867,8.29615 -21.7367,8.29615 -5.7708,0 -12.0546,-1.64099 -6.2197,-1.54983 -13.1446,-4.74066 v -17.32163 q 6.5403,4.83182 12.8882,7.29332 6.3478,2.37033 12.5675,2.37033 8.3356,0 12.824,-4.01133 4.4884,-4.10249 4.4884,-11.48697 0,-6.83749 -3.2701,-10.48414 -3.206,-3.64667 -14.1705,-7.01983 l -4.1038,-1.3675 q -10.9645,-3.28198 -15.8376,-10.02831 -4.8731,-6.83748 -4.8731,-18.68912 0,-14.4043 7.1814,-22.24461 7.1814,-7.84032 20.3902,-7.84032 6.5403,0 12.311,1.36749 5.7708,1.3675 10.644,4.1025 z" />
  <path
     id="path2844"
     fill="#d45500"
     d="m 1144.9387,321.28433 v 28.99094 h 24.3016 v 13.03681 h -24.3016 v 55.4292 q 0,12.48981 2.3725,16.0453 2.4366,3.5555 9.8104,3.5555 h 12.1187 v 14.03964 h -12.1187 q -13.6576,0 -18.8513,-7.20216 -5.1937,-7.29331 -5.1937,-26.43828 v -55.4292 h -8.6563 v -13.03681 h 8.6563 v -28.99094 z" />
  <path
     id="path2846"
     fill="#d45500"
     d="m 1246.2485,397.13483 v 8.20498 h -54.2456 q 0.7694,17.32163 7.3097,26.43828 6.6044,9.02549 18.3384,9.02549 6.7967,0 13.1446,-2.37033 6.412,-2.37033 12.6957,-7.11099 v 15.86296 q -6.3479,3.829 -13.0163,5.83466 -6.6685,2.00566 -13.5294,2.00566 -17.1841,0 -27.251,-14.22196 -10.0027,-14.22197 -10.0027,-38.47225 0,-25.07078 9.4898,-39.74858 9.5539,-14.76897 25.7121,-14.76897 14.4911,0 22.8909,13.3103 8.4638,13.21914 8.4638,36.01075 z m -11.798,-4.92298 q -0.1283,-13.76614 -5.4503,-21.97113 -5.2579,-8.20497 -13.9782,-8.20497 -9.8745,0 -15.8376,7.93147 -5.8991,7.93149 -6.7967,22.3358 z" />
  <path
     id="path2848"
     fill="#d45500"
     d="m 1321.5256,369.87606 q 4.4242,-11.30464 10.5797,-16.68346 6.1556,-5.37882 14.4912,-5.37882 11.221,0 17.3124,11.21347 6.0914,11.12231 6.0914,31.72594 v 61.62853 h -11.8622 v -61.08153 q 0,-14.67781 -3.6549,-21.7888 -3.6548,-7.11098 -11.1568,-7.11098 -9.1692,0 -14.4912,8.66081 -5.322,8.66082 -5.322,23.61212 v 57.70838 h -11.8622 v -61.08153 q 0,-14.76897 -3.6548,-21.7888 -3.6549,-7.11098 -11.2851,-7.11098 -9.041,0 -14.363,8.75198 -5.3219,8.66082 -5.3219,23.52095 v 57.70838 H 1265.164 V 350.27527 h 11.8622 v 15.86297 q 4.0396,-9.39014 9.6821,-13.8573 5.6425,-4.46716 13.4011,-4.46716 7.8227,0 13.2729,5.65232 5.5143,5.65232 8.1433,16.40996 z" />
</svg>
