<?xml version="1.0" encoding="UTF-8"?>
<svg width="1024" height="512" version="1" viewBox="360 0 1024 512" xmlns="http://www.w3.org/2000/svg" xmlns:cc="http://creativecommons.org/ns#" xmlns:dc="http://purl.org/dc/elements/1.1/" xmlns:rdf="http://www.w3.org/1999/02/22-rdf-syntax-ns#">
 <metadata>
  <rdf:RDF>
   <cc:Work rdf:about="">
    <dc:format>image/svg+xml</dc:format>
    <dc:type rdf:resource="http://purl.org/dc/dcmitype/StillImage"/>
    <dc:title/>
   </cc:Work>
  </rdf:RDF>
 </metadata>
 <defs>
  <style>.cls-1{fill:#c6202f;}.cls-2{fill:#fff;}</style>
  <style>.cls-1{fill:#c6202f;}.cls-2,.cls-4,.cls-5{fill:#fff;}.cls-3{fill:#d1d2d3;fill-rule:evenodd;}.cls-4{font-size:28.88px;font-family:Helvetica-8-Heavy;}.cls-5{font-size:16.84px;font-family:Helvetica-2-UltraLight;}</style>
 </defs>
 <g stroke-width="64">
  <path d="m656.61 271.56c-0.54266-26.916-16.398-60.963-42.125-68.914-58.373-18.041-167.17 75.156-167.17 75.156-122.73 97.621 19.934 239.65 103.71 183.25 58.997-39.715 107.04-117.21 105.59-189.5z" fill="#0a4" stroke="#338000"/>
  <path d="m576.33 271.76c0.54266-26.916 16.398-60.963 42.125-68.914 58.373-18.041 167.17 75.156 167.17 75.156 122.73 97.621-19.934 239.65-103.71 183.25-58.997-39.715-107.04-117.21-105.59-189.5z" fill="#d400aa" stroke="#a08"/>
  <path d="m572.8 241.97c0.54266 26.916 16.398 60.963 42.125 68.914 58.373 18.041 167.17-75.156 167.17-75.156 122.73-97.621-19.934-239.65-103.71-183.25-58.997 39.715-107.04 117.21-105.59 189.5z" fill="#2ca089" stroke="#217867"/>
  <path d="m658.11 243.63c-0.54266 26.916-16.398 60.963-42.125 68.914-58.373 18.041-167.17-75.156-167.17-75.156-122.73-97.621 19.934-239.65 103.71-183.25 58.997 39.715 107.04 117.21 105.59 189.5z" fill="#f60" stroke="#d45500"/>
 </g>
 <circle id="center" cx="616" cy="256" r="127.5" fill="#2c5aa0" stroke="#214478"/>
 <g font-family="'Agency FB'" font-size="147.24px" font-stretch="condensed" font-weight="bold" letter-spacing="0px" stroke-width="3.681" word-spacing="0px">
  <text x="870.80231" y="196.64133" fill="#2c5aa0" style="font-feature-settings:normal;font-variant-caps:normal;font-variant-ligatures:normal;font-variant-numeric:normal;line-height:1.25" xml:space="preserve"><tspan x="870.80231" y="196.64133" fill="#2c5aa0" font-family="'Agency FB'" font-size="147.24px" font-stretch="condensed" font-weight="bold" stroke-width="3.681" style="font-feature-settings:normal;font-variant-caps:normal;font-variant-ligatures:normal;font-variant-numeric:normal">MULTI</tspan></text>
  <text x="956.80792" y="320.02942" fill="#d45500" style="font-feature-settings:normal;font-variant-caps:normal;font-variant-ligatures:normal;font-variant-numeric:normal;line-height:1.25" xml:space="preserve"><tspan x="956.80792" y="320.02942" fill="#d45500" font-family="'Agency FB'" font-size="147.24px" font-stretch="condensed" font-weight="bold" stroke-width="3.681" style="font-feature-settings:normal;font-variant-caps:normal;font-variant-ligatures:normal;font-variant-numeric:normal">FUNC</tspan></text>
  <text x="1018.9546" y="454.62885" fill="#338000" style="font-feature-settings:normal;font-variant-caps:normal;font-variant-ligatures:normal;font-variant-numeric:normal;line-height:1.25" xml:space="preserve"><tspan x="1018.9546" y="454.62885" fill="#338000" font-family="'Agency FB'" font-size="147.24px" font-stretch="condensed" font-weight="bold" stroke-width="3.681" style="font-feature-settings:normal;font-variant-caps:normal;font-variant-ligatures:normal;font-variant-numeric:normal">TIONAL</tspan></text>
 </g>
</svg>
